<svg xmlns="http://www.w3.org/2000/svg" viewBox="0 0 65 65"><defs><style>.cls-1{fill:#ffae00;}.cls-2{fill:none;stroke:#000;stroke-linecap:round;stroke-linejoin:round;stroke-width:1.13px;}</style></defs><title>6</title><g id="Layer_2" data-name="Layer 2"><g id="Layer_1-2" data-name="Layer 1"><circle class="cls-1" cx="32.5" cy="32.5" r="32.5"/><rect class="cls-2" x="12.41" y="32.45" width="14.43" height="14.05"/><polygon class="cls-2" points="29.52 23.92 15.08 23.92 12.41 32.45 26.84 32.45 29.52 23.92"/><rect class="cls-2" x="15.08" y="20.92" width="14.43" height="3"/><polygon class="cls-2" points="32.19 32.45 32.19 52.66 26.84 52.66 26.84 32.45 29.52 23.92 32.19 32.45"/><rect class="cls-2" x="12.41" y="46.5" width="14.43" height="6.16"/><line class="cls-2" x1="15.08" y1="36.44" x2="23.44" y2="36.44"/><line class="cls-2" x1="15.08" y1="39.4" x2="21.48" y2="39.4"/><path class="cls-2" d="M41.14,20.19V9.2H46v11h0a4.16,4.16,0,0,1,4,4.15V52.66H37.16V24.34a4.16,4.16,0,0,1,4-4.15Z"/><rect class="cls-2" x="37.15" y="27.45" width="9.72" height="18.31"/><line class="cls-2" x1="37.2" y1="31.08" x2="44.32" y2="31.08"/><line class="cls-2" x1="37.52" y1="33.96" x2="41.44" y2="33.96"/><path class="cls-2" d="M32.54,5.95h0a5.75,5.75,0,0,1-5.75,5.75h0a5.75,5.75,0,0,1,5.75,5.75h0a5.75,5.75,0,0,1,5.75-5.75h0A5.75,5.75,0,0,1,32.54,5.95Z"/><path class="cls-2" d="M23.36,12.49h0a2.8,2.8,0,0,1-2.8,2.8h0a2.8,2.8,0,0,1,2.8,2.8h0a2.8,2.8,0,0,1,2.8-2.8h0A2.8,2.8,0,0,1,23.36,12.49Z"/></g></g></svg>