<svg xmlns="http://www.w3.org/2000/svg" viewBox="0 0 46.51 37.29"><defs><style>.cls-1{fill:none;}.cls-1,.cls-3,.cls-4{stroke:#000;stroke-width:1.13px;}.cls-1,.cls-4{stroke-linecap:round;stroke-linejoin:round;}.cls-2,.cls-3,.cls-4{fill:#ffae00;}.cls-3{stroke-miterlimit:10;}</style></defs><title>1</title><g id="Layer_2" data-name="Layer 2"><g id="Layer_1-2" data-name="Layer 1"><rect class="cls-1" x="12.24" y="0.57" width="22.03" height="6.25"/><path class="cls-2" d="M33.81,35.22a37.83,37.83,0,0,1-21.11,0V22.45H33.81Z"/><path class="cls-1" d="M33.81,35.22a37.83,37.83,0,0,1-21.11,0V22.45H33.81Z"/><path class="cls-3" d="M31.38,21.67"/><path class="cls-2" d="M32.88,20a110.19,110.19,0,0,1-19.25,0q-1.35,1.25-2.76,2.47a112.91,112.91,0,0,0,24.78,0Q34.23,21.21,32.88,20Z"/><path class="cls-1" d="M32.88,20a110.19,110.19,0,0,1-19.25,0q-1.35,1.25-2.76,2.47a112.91,112.91,0,0,0,24.78,0Q34.23,21.21,32.88,20Z"/><line class="cls-4" x1="15.13" y1="6.82" x2="15.13" y2="20.01"/><line class="cls-4" x1="31.38" y1="20.01" x2="31.38" y2="6.82"/><line class="cls-4" x1="15.02" y1="3.69" x2="31.49" y2="3.69"/><path class="cls-2" d="M31.38,32.21a64.81,64.81,0,0,1-16.25,0q0-2.55,0-5.09a64.81,64.81,0,0,0,16.25,0Q31.38,29.66,31.38,32.21Z"/><path class="cls-1" d="M31.38,32.21a64.81,64.81,0,0,1-16.25,0q0-2.55,0-5.09a64.81,64.81,0,0,0,16.25,0Q31.38,29.66,31.38,32.21Z"/><line class="cls-1" x1="39.4" y1="30.67" x2="39.4" y2="24.46"/><rect class="cls-1" x="39.4" y="2.97" width="6.54" height="21.49"/><line class="cls-1" x1="7.11" y1="30.67" x2="7.11" y2="24.46"/><rect class="cls-1" x="0.57" y="2.97" width="6.54" height="21.49" transform="translate(7.68 27.42) rotate(-180)"/><circle class="cls-1" cx="23.25" cy="13.41" r="2.72"/><path class="cls-1" d="M28.72,20.19a5.72,5.72,0,0,0-10.94,0"/><line class="cls-1" x1="42.67" y1="5.86" x2="42.67" y2="21.67"/><line class="cls-1" x1="3.84" y1="5.86" x2="3.84" y2="21.67"/></g></g></svg>