<svg xmlns="http://www.w3.org/2000/svg" viewBox="0 0 65 65"><defs><style>.cls-1,.cls-3,.cls-4{fill:#ffae00;}.cls-2{fill:none;}.cls-2,.cls-3,.cls-4{stroke:#000;stroke-width:1.13px;}.cls-2,.cls-4{stroke-linecap:round;stroke-linejoin:round;}.cls-3{stroke-miterlimit:10;}</style></defs><title>1</title><g id="Layer_2" data-name="Layer 2"><g id="Layer_1-2" data-name="Layer 1"><circle class="cls-1" cx="32.5" cy="32.5" r="32.5"/><rect class="cls-2" x="21.48" y="15.17" width="22.03" height="6.25"/><path class="cls-1" d="M43.05,49.83a37.83,37.83,0,0,1-21.11,0V37.05H43.05Z"/><path class="cls-2" d="M43.05,49.83a37.83,37.83,0,0,1-21.11,0V37.05H43.05Z"/><path class="cls-3" d="M40.62,36.28"/><path class="cls-1" d="M42.13,34.57a110.19,110.19,0,0,1-19.25,0Q21.52,35.82,20.11,37a112.91,112.91,0,0,0,24.78,0Q43.48,35.82,42.13,34.57Z"/><path class="cls-2" d="M42.13,34.57a110.19,110.19,0,0,1-19.25,0Q21.52,35.82,20.11,37a112.91,112.91,0,0,0,24.78,0Q43.48,35.82,42.13,34.57Z"/><line class="cls-4" x1="24.38" y1="21.43" x2="24.38" y2="34.61"/><line class="cls-4" x1="40.62" y1="34.61" x2="40.62" y2="21.43"/><line class="cls-4" x1="24.26" y1="18.3" x2="40.74" y2="18.3"/><path class="cls-1" d="M40.62,46.82a64.81,64.81,0,0,1-16.25,0q0-2.55,0-5.09a64.81,64.81,0,0,0,16.25,0Q40.62,44.27,40.62,46.82Z"/><path class="cls-2" d="M40.62,46.82a64.81,64.81,0,0,1-16.25,0q0-2.55,0-5.09a64.81,64.81,0,0,0,16.25,0Q40.62,44.27,40.62,46.82Z"/><line class="cls-2" x1="48.64" y1="45.28" x2="48.64" y2="39.06"/><rect class="cls-2" x="48.64" y="17.57" width="6.54" height="21.49"/><line class="cls-2" x1="16.36" y1="45.28" x2="16.36" y2="39.06"/><rect class="cls-2" x="9.81" y="17.57" width="6.54" height="21.49" transform="translate(26.17 56.64) rotate(-180)"/><circle class="cls-2" cx="32.5" cy="28.02" r="2.72"/><path class="cls-2" d="M38,34.79a5.72,5.72,0,0,0-10.94,0"/><line class="cls-2" x1="51.92" y1="20.46" x2="51.92" y2="36.28"/><line class="cls-2" x1="13.08" y1="20.46" x2="13.08" y2="36.28"/></g></g></svg>