<svg xmlns="http://www.w3.org/2000/svg" viewBox="0 0 111.84 122.89"><defs><style>.cls-1{fill:none;stroke:#000;stroke-linecap:round;stroke-linejoin:round;stroke-width:3px;}</style></defs><title>2</title><g id="Слой_2" data-name="Слой 2"><g id="Layer_1" data-name="Layer 1"><path class="cls-1" d="M25.61,36.68h9.82a98.84,98.84,0,0,1,14.8-22m24.54,99.61A54.42,54.42,0,0,1,8.44,36.68,53.71,53.71,0,0,1,17.86,24.4M40.54,11.06a54.43,54.43,0,0,1,69.8,52.19,54,54,0,0,1-6.94,26.57A54.67,54.67,0,0,1,94,102.1"/><path class="cls-1" d="M83,63.25c0,9.66-2.8,18.72-6.59,26.57a99.57,99.57,0,0,1-20.5,27.84A99.65,99.65,0,0,1,35.43,89.82c-3.79-7.85-6.6-16.91-6.6-26.57s2.81-18.73,6.6-26.57a98.84,98.84,0,0,1,14.8-22h0s0,0,0,0a80.35,80.35,0,0,1,5.63-5.85,99.53,99.53,0,0,1,20.5,27.85C80.21,44.52,83,53.58,83,63.25Z"/><line class="cls-1" x1="55.92" y1="8.83" x2="55.92" y2="117.66"/><line class="cls-1" x1="103.43" y1="89.81" x2="8.41" y2="89.81"/><polyline class="cls-1" points="8.42 36.68 8.45 36.68 25.12 36.68 25.61 36.68 35.43 36.68 55.92 36.68 76.42 36.68 103.4 36.68 103.43 36.68"/><line class="cls-1" x1="1.5" y1="63.25" x2="110.34" y2="63.25"/><path class="cls-1" d="M85.53,95.22h0A13.08,13.08,0,0,1,72.43,108.3h0a13.08,13.08,0,0,1,13.08,13.08h0a13.08,13.08,0,0,1,13.08-13.08h0A13.08,13.08,0,0,1,85.53,95.22Z"/><path class="cls-1" d="M27.83,1.5h0A15.2,15.2,0,0,1,12.61,16.7v0a15.21,15.21,0,0,1,15.21,15.2h0A15.21,15.21,0,0,1,43,16.72v0A15.2,15.2,0,0,1,27.83,1.5Z"/><line class="cls-1" x1="50.26" y1="14.7" x2="50.23" y2="14.7"/></g></g></svg>