<svg xmlns="http://www.w3.org/2000/svg" viewBox="0 0 65 65"><defs><style>.cls-1{fill:#ffae00;}.cls-2,.cls-3{fill:none;stroke:#000;stroke-linecap:round;stroke-linejoin:round;}.cls-2{stroke-width:1.13px;}.cls-3{stroke-width:1.13px;}</style></defs><title>3</title><g id="Layer_2" data-name="Layer 2"><g id="Layer_1-2" data-name="Layer 1"><circle class="cls-1" cx="32.5" cy="32.5" r="32.5"/><polyline class="cls-2" points="17.26 25.5 17.26 36.24 21.18 36.32"/><rect class="cls-2" x="23.23" y="26.31" width="6.05" height="11.4" rx="3.03" ry="3.03"/><path class="cls-2" d="M37.93,34.29"/><path class="cls-2" d="M38.11,30.22a3,3,0,0,0-3-3h0a3,3,0,0,0-3,3v5.35a3,3,0,0,0,3,3h0a3,3,0,0,0,3-3V34.33h-3"/><rect class="cls-2" x="40.93" y="28.09" width="6.05" height="11.4" rx="3.03" ry="3.03"/><line class="cls-2" x1="22.48" y1="20.66" x2="41.76" y2="22.54"/><line class="cls-2" x1="41.76" y1="44.33" x2="22.48" y2="42.45"/><path class="cls-2" d="M13.56,38.78h0a19.29,19.29,0,0,1-1-6.27A19.59,19.59,0,0,1,45.44,18.13"/><path class="cls-2" d="M50.85,26.73A19.6,19.6,0,0,1,19.62,47.59"/><path class="cls-2" d="M53.25,23.49a23,23,0,0,1-35.89,26.6"/><path class="cls-2" d="M11.09,41.71a23,23,0,0,1,36.67-26"/><path class="cls-3" d="M15.29,51.7h0a7,7,0,0,0-7-7h0a7,7,0,0,0,7-7h0a7,7,0,0,0,7,7h0A7,7,0,0,0,15.29,51.7Z"/><line class="cls-3" x1="13.56" y1="38.78" x2="13.56" y2="38.77"/><path class="cls-3" d="M49.17,27.46h0a7,7,0,0,0-6.41-7.54h0a7,7,0,0,0,7.54-6.41h0a7,7,0,0,0,6.41,7.54h0A7,7,0,0,0,49.17,27.46Z"/></g></g></svg>