<svg xmlns="http://www.w3.org/2000/svg" viewBox="0 0 115.48 88.43"><defs><style>.cls-1{fill:none;stroke:#000;stroke-linecap:round;stroke-miterlimit:10;stroke-width:3px;}</style></defs><title>3</title><g id="Слой_2" data-name="Слой 2"><g id="Layer_1" data-name="Layer 1"><rect class="cls-1" x="1.5" y="35.71" width="81.36" height="51.22"/><polyline class="cls-1" points="1.5 11.87 38.34 11.87 38.34 35.71"/><polyline class="cls-1" points="71.99 11.87 53.57 11.87 53.57 35.71"/><path class="cls-1" d="M72,1.5H99.67A10.38,10.38,0,0,1,110,11.87v0A10.38,10.38,0,0,1,99.67,22.25H72a0,0,0,0,1,0,0V1.5A0,0,0,0,1,72,1.5Z"/><line class="cls-1" x1="43.07" y1="49.3" x2="71.99" y2="49.3"/><polygon class="cls-1" points="113.98 80.23 82.86 72.35 82.86 50.29 113.98 42.41 113.98 80.23"/><polygon class="cls-1" points="38.34 63.13 13.35 48.7 13.35 77.55 38.34 63.13"/></g></g></svg>