<svg xmlns="http://www.w3.org/2000/svg" viewBox="0 0 49.55 47.06"><defs><style>.cls-1,.cls-2{fill:none;stroke:#000;stroke-linecap:round;stroke-linejoin:round;}.cls-1{stroke-width:1.13px;}.cls-2{stroke-width:1.13px;}</style></defs><title>3</title><g id="Layer_2" data-name="Layer 2"><g id="Layer_1-2" data-name="Layer 1"><polyline class="cls-1" points="9.53 16.53 9.53 27.27 13.45 27.35"/><rect class="cls-1" x="15.51" y="17.34" width="6.05" height="11.4" rx="3.03" ry="3.03"/><path class="cls-1" d="M30.2,25.32"/><path class="cls-1" d="M30.39,21.25a3,3,0,0,0-3-3h0a3,3,0,0,0-3,3V26.6a3,3,0,0,0,3,3h0a3,3,0,0,0,3-3V25.36h-3"/><rect class="cls-1" x="33.2" y="19.12" width="6.05" height="11.4" rx="3.03" ry="3.03"/><line class="cls-1" x1="14.75" y1="11.69" x2="34.04" y2="13.58"/><line class="cls-1" x1="34.04" y1="35.37" x2="14.75" y2="33.48"/><path class="cls-1" d="M5.83,29.81h0a19.29,19.29,0,0,1-1-6.27A19.59,19.59,0,0,1,37.72,9.16"/><path class="cls-1" d="M43.13,17.76A19.6,19.6,0,0,1,11.89,38.62"/><path class="cls-1" d="M45.53,14.53A23,23,0,0,1,9.63,41.12"/><path class="cls-1" d="M3.36,32.74A23,23,0,0,1,40,6.72"/><path class="cls-2" d="M7.56,42.73h0a7,7,0,0,0-7-7h0a7,7,0,0,0,7-7h0a7,7,0,0,0,7,7h0A7,7,0,0,0,7.56,42.73Z"/><line class="cls-2" x1="5.83" y1="29.81" x2="5.83" y2="29.8"/><path class="cls-2" d="M41.44,18.49h0A7,7,0,0,0,35,11h0a7,7,0,0,0,7.54-6.41h0A7,7,0,0,0,49,12.08h0A7,7,0,0,0,41.44,18.49Z"/></g></g></svg>