<svg xmlns="http://www.w3.org/2000/svg" viewBox="0 0 102.42 126.54"><defs><style>.cls-1{fill:none;stroke:#000;stroke-linecap:round;stroke-linejoin:round;stroke-width:3px;}</style></defs><title>4</title><g id="Слой_2" data-name="Слой 2"><g id="Layer_1" data-name="Layer 1"><rect class="cls-1" x="1.5" y="71.58" width="38.17" height="37.16"/><polygon class="cls-1" points="46.75 49.04 8.58 49.04 1.5 71.58 39.67 71.58 46.75 49.04"/><rect class="cls-1" x="8.58" y="41.11" width="38.17" height="7.93"/><polygon class="cls-1" points="53.83 71.58 53.83 125.04 39.66 125.04 39.66 71.58 46.75 49.03 53.83 71.58"/><rect class="cls-1" x="1.5" y="108.74" width="38.17" height="16.3"/><line class="cls-1" x1="8.57" y1="82.15" x2="30.68" y2="82.15"/><line class="cls-1" x1="8.57" y1="89.98" x2="25.49" y2="89.98"/><path class="cls-1" d="M77.49,39.16v-29H90.36v29h0a11,11,0,0,1,10.58,11V125H67V50.15a11,11,0,0,1,10.57-11Z"/><rect class="cls-1" x="66.95" y="58.36" width="25.71" height="48.43"/><line class="cls-1" x1="67.06" y1="67.98" x2="85.89" y2="67.98"/><line class="cls-1" x1="67.91" y1="75.6" x2="78.28" y2="75.6"/><path class="cls-1" d="M54.76,1.5h0A15.21,15.21,0,0,1,39.51,16.71v0A15.21,15.21,0,0,1,54.72,32h0A15.21,15.21,0,0,1,70,16.75v0A15.21,15.21,0,0,1,54.76,1.5Z"/><path class="cls-1" d="M30.47,18.79h0a7.4,7.4,0,0,1-7.4,7.4v0a7.4,7.4,0,0,1,7.4,7.39h0a7.39,7.39,0,0,1,7.4-7.39v0A7.4,7.4,0,0,1,30.47,18.79Z"/></g></g></svg>