<svg xmlns="http://www.w3.org/2000/svg" viewBox="0 0 131.04 124.46"><defs><style>.cls-1,.cls-2{fill:none;stroke:#000;stroke-linecap:round;stroke-linejoin:round;}.cls-1{stroke-width:3px;}.cls-2{stroke-width:3px;}</style></defs><title>6</title><g id="Слой_2" data-name="Слой 2"><g id="Layer_1" data-name="Layer 1"><polyline class="cls-1" points="25.21 43.73 25.21 72.13 35.57 72.33"/><rect class="cls-1" x="41.01" y="45.85" width="16.01" height="30.16" rx="8.01"/><path class="cls-1" d="M80.36,56.19a8,8,0,0,0-8-8h0a8,8,0,0,0-8,8V70.34a8,8,0,0,0,8,8h0a8,8,0,0,0,8-8V67.07H72.51"/><rect class="cls-1" x="87.81" y="50.57" width="16.01" height="30.16" rx="8.01"/><line class="cls-1" x1="39.02" y1="30.93" x2="90.01" y2="35.9"/><line class="cls-1" x1="90.01" y1="93.53" x2="39.02" y2="88.55"/><path class="cls-1" d="M15.43,78.83v0a51,51,0,0,1-2.74-16.59,51.82,51.82,0,0,1,87.06-38"/><path class="cls-1" d="M114.06,47a51.84,51.84,0,0,1-82.61,55.17"/><path class="cls-1" d="M120.4,38.41a60.75,60.75,0,0,1-94.92,70.35"/><path class="cls-1" d="M8.89,86.6a60.72,60.72,0,0,1,97-68.83"/><path class="cls-2" d="M20,113h0A18.5,18.5,0,0,0,1.5,94.51h0A18.5,18.5,0,0,0,20,76h0a18.5,18.5,0,0,0,18.5,18.5h0A18.5,18.5,0,0,0,20,113Z"/><line class="cls-2" x1="15.43" y1="78.83" x2="15.43" y2="78.81"/><path class="cls-2" d="M109.61,48.9h0A18.51,18.51,0,0,0,92.66,29h0A18.5,18.5,0,0,0,112.6,12h0A18.51,18.51,0,0,0,129.54,32h0A18.49,18.49,0,0,0,109.61,48.9Z"/></g></g></svg>