<svg xmlns="http://www.w3.org/2000/svg" viewBox="0 0 38.73 47.85"><defs><style>.cls-1{fill:none;stroke:#000;stroke-linecap:round;stroke-linejoin:round;stroke-width:1.13px;}</style></defs><title>6</title><g id="Layer_2" data-name="Layer 2"><g id="Layer_1-2" data-name="Layer 1"><rect class="cls-1" x="0.57" y="27.07" width="14.43" height="14.05"/><polygon class="cls-1" points="17.68 18.54 3.25 18.54 0.57 27.07 15 27.07 17.68 18.54"/><rect class="cls-1" x="3.24" y="15.54" width="14.43" height="3"/><polygon class="cls-1" points="20.35 27.07 20.35 47.28 15 47.28 15 27.07 17.68 18.54 20.35 27.07"/><rect class="cls-1" x="0.57" y="41.12" width="14.43" height="6.16"/><line class="cls-1" x1="3.24" y1="31.06" x2="11.6" y2="31.06"/><line class="cls-1" x1="3.24" y1="34.02" x2="9.64" y2="34.02"/><path class="cls-1" d="M29.3,14.81v-11h4.87v11h0a4.16,4.16,0,0,1,4,4.15V47.28H25.32V19a4.16,4.16,0,0,1,4-4.15Z"/><rect class="cls-1" x="25.32" y="22.07" width="9.72" height="18.31"/><line class="cls-1" x1="25.36" y1="25.71" x2="32.48" y2="25.71"/><line class="cls-1" x1="25.68" y1="28.58" x2="29.6" y2="28.58"/><path class="cls-1" d="M20.71.57h0a5.75,5.75,0,0,1-5.75,5.75h0a5.75,5.75,0,0,1,5.75,5.75h0a5.75,5.75,0,0,1,5.75-5.75h0A5.75,5.75,0,0,1,20.71.57Z"/><path class="cls-1" d="M11.52,7.11h0a2.8,2.8,0,0,1-2.8,2.8h0a2.8,2.8,0,0,1,2.8,2.8h0a2.8,2.8,0,0,1,2.8-2.8h0A2.8,2.8,0,0,1,11.52,7.11Z"/></g></g></svg>