<svg xmlns="http://www.w3.org/2000/svg" viewBox="0 0 65 65"><defs><style>.cls-1{fill:#ffae00;}.cls-2{fill:none;stroke:#000;stroke-linecap:round;stroke-miterlimit:10;stroke-width:1.13px;}</style></defs><title>7</title><g id="Layer_2" data-name="Layer 2"><g id="Layer_1-2" data-name="Layer 1"><circle class="cls-1" cx="32.5" cy="32.5" r="32.5"/><rect class="cls-2" x="12.8" y="28.28" width="30.76" height="19.37"/><polyline class="cls-2" points="12.8 19.27 26.73 19.27 26.73 28.29"/><polyline class="cls-2" points="39.45 19.27 32.49 19.27 32.49 28.29"/><path class="cls-2" d="M39.45,15.35H49.92a3.92,3.92,0,0,1,3.92,3.92v0a3.92,3.92,0,0,1-3.92,3.92H39.45a0,0,0,0,1,0,0V15.35A0,0,0,0,1,39.45,15.35Z"/><line class="cls-2" x1="28.52" y1="33.42" x2="39.45" y2="33.42"/><polygon class="cls-2" points="55.33 45.12 43.56 42.14 43.56 33.8 55.33 30.82 55.33 45.12"/><polygon class="cls-2" points="26.73 38.65 17.28 33.2 17.28 44.1 26.73 38.65"/></g></g></svg>