<svg xmlns="http://www.w3.org/2000/svg" viewBox="0 0 43.67 33.44"><defs><style>.cls-1{fill:none;stroke:#000;stroke-linecap:round;stroke-miterlimit:10;stroke-width:1.13px;}</style></defs><title>7</title><g id="Layer_2" data-name="Layer 2"><g id="Layer_1-2" data-name="Layer 1"><rect class="cls-1" x="0.57" y="13.5" width="30.76" height="19.37"/><polyline class="cls-1" points="0.57 4.49 14.5 4.49 14.5 13.5"/><polyline class="cls-1" points="27.22 4.49 20.26 4.49 20.26 13.5"/><path class="cls-1" d="M27.22.57H37.69a3.92,3.92,0,0,1,3.92,3.92v0a3.92,3.92,0,0,1-3.92,3.92H27.22a0,0,0,0,1,0,0V.57A0,0,0,0,1,27.22.57Z"/><line class="cls-1" x1="16.28" y1="18.64" x2="27.22" y2="18.64"/><polygon class="cls-1" points="43.1 30.34 31.33 27.36 31.33 19.02 43.1 16.04 43.1 30.34"/><polygon class="cls-1" points="14.5 23.87 5.05 18.41 5.05 29.32 14.5 23.87"/></g></g></svg>