<svg xmlns="http://www.w3.org/2000/svg" viewBox="0 0 123 98.62"><defs><style>.cls-1,.cls-2{fill:none;}.cls-1,.cls-3{stroke:#000;stroke-linecap:round;stroke-linejoin:round;stroke-width:3px;}.cls-3{fill:#ffae00;}</style></defs><title>8</title><g id="Слой_2" data-name="Слой 2"><g id="Layer_1" data-name="Layer 1"><rect class="cls-1" x="32.36" y="1.5" width="58.27" height="16.53"/><path class="cls-1" d="M89.4,59.83V93.15a99.9,99.9,0,0,1-55.8,0V59.83"/><path class="cls-2" d="M87,52.8A292.54,292.54,0,0,1,36,52.8q-3.57,3.3-7.31,6.52a299.2,299.2,0,0,0,65.54,0Q90.54,56.11,87,52.8Z"/><path class="cls-1" d="M87,52.8A292.54,292.54,0,0,1,36,52.8q-3.57,3.3-7.31,6.52a299.2,299.2,0,0,0,65.54,0Q90.54,56.11,87,52.8Z"/><line class="cls-3" x1="40.02" y1="18.03" x2="40.02" y2="52.91"/><line class="cls-3" x1="82.98" y1="52.91" x2="82.98" y2="18.03"/><line class="cls-3" x1="39.71" y1="9.77" x2="83.29" y2="9.77"/><path class="cls-1" d="M83,85.18a171.56,171.56,0,0,1-43,0V71.71a171.56,171.56,0,0,0,43,0Z"/><line class="cls-1" x1="104.2" y1="81.12" x2="104.2" y2="64.68"/><rect class="cls-1" x="104.2" y="7.85" width="17.3" height="56.83"/><line class="cls-1" x1="18.8" y1="81.12" x2="18.8" y2="64.68"/><rect class="cls-1" x="1.5" y="7.85" width="17.3" height="56.83" transform="translate(20.3 72.53) rotate(-180)"/><circle class="cls-1" cx="61.5" cy="35.47" r="7.2"/><path class="cls-1" d="M76,53.39a15.13,15.13,0,0,0-28.93,0"/><line class="cls-1" x1="112.85" y1="15.49" x2="112.85" y2="57.32"/><line class="cls-1" x1="10.15" y1="15.49" x2="10.15" y2="57.32"/></g></g></svg>