<svg xmlns="http://www.w3.org/2000/svg" viewBox="0 0 65 65"><defs><style>.cls-1{fill:#ffae00;}.cls-2{fill:none;stroke:#000;stroke-linecap:round;stroke-linejoin:round;stroke-width:1.13px;}</style></defs><title>8</title><g id="Layer_2" data-name="Layer 2"><g id="Layer_1-2" data-name="Layer 1"><circle class="cls-1" cx="32.5" cy="32.5" r="32.5"/><path class="cls-2" d="M21.67,22.8h3.71A37.33,37.33,0,0,1,31,14.49m9.28,37.66A20.58,20.58,0,0,1,15.18,22.8a20.28,20.28,0,0,1,3.56-4.64m8.58-5A20.57,20.57,0,0,1,47.54,47.54"/><path class="cls-2" d="M43.38,32.85a23.22,23.22,0,0,1-2.49,10,37.67,37.67,0,0,1-7.75,10.53,37.67,37.67,0,0,1-7.75-10.53,23.22,23.22,0,0,1-2.49-10,23.22,23.22,0,0,1,2.49-10A37.33,37.33,0,0,1,31,14.49h0a29.51,29.51,0,0,1,2.13-2.21A37.67,37.67,0,0,1,40.88,22.8,23.22,23.22,0,0,1,43.38,32.85Z"/><line class="cls-2" x1="33.13" y1="12.27" x2="33.13" y2="53.42"/><line class="cls-2" x1="51.1" y1="42.89" x2="15.17" y2="42.89"/><polyline class="cls-2" points="15.17 22.8 15.18 22.8 21.49 22.8 21.67 22.8 25.39 22.8 33.13 22.8 40.88 22.8 51.09 22.8 51.1 22.8"/><line class="cls-2" x1="12.55" y1="32.85" x2="53.71" y2="32.85"/><path class="cls-2" d="M44.33,44.94h0a5,5,0,0,1-4.95,4.95h0a5,5,0,0,1,4.95,4.95h0a5,5,0,0,1,4.95-4.95h0A5,5,0,0,1,44.33,44.94Z"/><path class="cls-2" d="M22.51,9.5h0a5.75,5.75,0,0,1-5.75,5.75h0A5.75,5.75,0,0,1,22.51,21h0a5.75,5.75,0,0,1,5.75-5.75h0A5.75,5.75,0,0,1,22.51,9.5Z"/><line class="cls-2" x1="30.99" y1="14.49" x2="30.98" y2="14.49"/></g></g></svg>