<svg xmlns="http://www.w3.org/2000/svg" viewBox="0 0 42.29 46.47"><defs><style>.cls-1{fill:none;stroke:#000;stroke-linecap:round;stroke-linejoin:round;stroke-width:1.13px;}</style></defs><title>8</title><g id="Layer_2" data-name="Layer 2"><g id="Layer_1-2" data-name="Layer 1"><path class="cls-1" d="M9.68,13.87H13.4A37.33,37.33,0,0,1,19,5.56m9.28,37.66A20.58,20.58,0,0,1,3.19,13.87,20.28,20.28,0,0,1,6.75,9.23m8.58-5A20.57,20.57,0,0,1,35.55,38.61"/><path class="cls-1" d="M31.39,23.92a23.22,23.22,0,0,1-2.49,10,37.67,37.67,0,0,1-7.75,10.53A37.67,37.67,0,0,1,13.4,34a23.22,23.22,0,0,1-2.49-10,23.22,23.22,0,0,1,2.49-10A37.33,37.33,0,0,1,19,5.56h0a29.51,29.51,0,0,1,2.13-2.21,37.67,37.67,0,0,1,7.75,10.53A23.22,23.22,0,0,1,31.39,23.92Z"/><line class="cls-1" x1="21.14" y1="3.34" x2="21.14" y2="44.49"/><line class="cls-1" x1="39.11" y1="33.96" x2="3.18" y2="33.96"/><polyline class="cls-1" points="3.18 13.87 3.19 13.87 9.5 13.87 9.69 13.87 13.4 13.87 21.15 13.87 28.89 13.87 39.1 13.87 39.11 13.87"/><line class="cls-1" x1="0.57" y1="23.91" x2="41.72" y2="23.91"/><path class="cls-1" d="M32.34,36h0a5,5,0,0,1-4.95,4.95h0a5,5,0,0,1,4.95,4.95h0A5,5,0,0,1,37.29,41h0A5,5,0,0,1,32.34,36Z"/><path class="cls-1" d="M10.52.57h0A5.75,5.75,0,0,1,4.77,6.32h0a5.75,5.75,0,0,1,5.75,5.75h0a5.75,5.75,0,0,1,5.75-5.75h0A5.75,5.75,0,0,1,10.52.57Z"/><line class="cls-1" x1="19" y1="5.56" x2="19" y2="5.56"/></g></g></svg>