<svg xmlns="http://www.w3.org/2000/svg" viewBox="0 0 642.66 420"><defs><style>.cls-1,.cls-2{fill:none;}.cls-1{stroke:#fff;stroke-width:7px;}</style></defs><title>G11 632x420</title><g id="Слой_2" data-name="Слой 2"><g id="Слой_1-2" data-name="Слой 1"><path class="cls-1" d="M201.27,160.31s-15.28-21-47.77-21c-26.76,0-48.16,13.38-59.24,74.53-8,45.87,7.26,68.8,37.83,68.8,11.47,0,19.5-2.29,29.43-5.73L166.11,252l-45.48-1.91,17.58-66.89,117,7.65L231.85,322.75c-31.72,17.2-73.77,28.67-108.17,28.67-87.91,0-132.24-51.6-117.33-137.6C19.72,139.29,54.89,68.58,169.93,68.58c58.87,0,88.68,38.22,88.68,38.22Z"/><path class="cls-1" d="M268.14,278.8h49.69l24.85-118.49L288.4,175.6l-14.14-49.69L374,68.58l67.65,7.64L401.92,280.71l38.22-1.91-7.26,65H257.06Z"/><path class="cls-1" d="M465,278.8h49.69l24.85-118.49L485.23,175.6l-14.14-49.69,99.76-57.33,67.65,7.64L598.75,280.71,637,278.8l-7.26,65H453.89Z"/><rect class="cls-2" x="3.5" width="635" height="420"/></g></g></svg>