<?xml version="1.0" encoding="UTF-8" standalone="no"?>
<svg
   xmlns:dc="http://purl.org/dc/elements/1.1/"
   xmlns:cc="http://creativecommons.org/ns#"
   xmlns:rdf="http://www.w3.org/1999/02/22-rdf-syntax-ns#"
   xmlns:svg="http://www.w3.org/2000/svg"
   xmlns="http://www.w3.org/2000/svg"
   xmlns:sodipodi="http://sodipodi.sourceforge.net/DTD/sodipodi-0.dtd"
   xmlns:inkscape="http://www.inkscape.org/namespaces/inkscape"
   viewBox="0 0 299.75 172.39"
   version="1.1"
   id="svg42"
   sodipodi:docname="G11about.svg"
   inkscape:version="0.92.0 r15299">
  <metadata
     id="metadata46">
    <rdf:RDF>
      <cc:Work
         rdf:about="">
        <dc:format>image/svg+xml</dc:format>
        <dc:type
           rdf:resource="http://purl.org/dc/dcmitype/StillImage" />
      </cc:Work>
    </rdf:RDF>
  </metadata>
  <sodipodi:namedview
     pagecolor="#ffffff"
     bordercolor="#666666"
     borderopacity="1"
     objecttolerance="10"
     gridtolerance="10"
     guidetolerance="10"
     inkscape:pageopacity="0"
     inkscape:pageshadow="2"
     inkscape:window-width="742"
     inkscape:window-height="480"
     id="namedview44"
     showgrid="false"
     inkscape:zoom="0.94745621"
     inkscape:cx="149.875"
     inkscape:cy="86.195"
     inkscape:window-x="0"
     inkscape:window-y="0"
     inkscape:window-maximized="0"
     inkscape:current-layer="svg42" />
  <defs
     id="defs4">
    <style
       id="style2">.cls-1{font-size:24.84px;font-family:Verdana-Italic, Verdana;font-style:italic;}</style>
  </defs>
  <title
     id="title6">G11</title>
  <g
     id="Слой_2"
     data-name="Слой 2"
     style="fill:#ffffff">
    <g
       id="Слой_1-2"
       data-name="Слой 1"
       style="fill:#ffffff">
      <path
         d="M114.63,24.69S110.51,19,101.77,19c-7.2,0-13,3.6-15.94,20.06C83.67,51.43,87.78,57.6,96,57.6a22.24,22.24,0,0,0,7.92-1.54l1.23-6.69-12.24-.51,4.74-18,31.47,2.06L122.86,68.4C114.32,73,103,76.12,93.75,76.12c-23.66,0-35.59-13.89-31.58-37C65.77,19,75.23,0,106.19,0,122,0,130.06,10.29,130.06,10.29Z"
         id="path8"
         style="fill:#ffffff" />
      <path
         d="M132.62,56.57H146l6.69-31.88L138.07,28.8l-3.8-13.37L161.11,0l18.21,2.06-10.7,55,10.29-.52-2,17.49H129.64Z"
         id="path10"
         style="fill:#ffffff" />
      <path
         d="M185.59,56.57H199l6.69-31.88L191,28.8l-3.8-13.37L214.08,0l18.21,2.06-10.7,55,10.29-.52-2,17.49H182.61Z"
         id="path12"
         style="fill:#ffffff" />
      <path
         d="M14.84,114.88l-1.69,6.43,5,.21-.67,3.61-.27.1a9.75,9.75,0,0,1-3.44.66,4.54,4.54,0,0,1-3.7-1.54c-1.19-1.41-1.52-3.66-1-6.69,1.1-6.09,3.22-8.69,7.07-8.69a7.39,7.39,0,0,1,5.35,2.12l5.63-5.26A12.71,12.71,0,0,0,18,102.11c-13.17,0-16.37,8.41-17.68,15.73-.78,4.49-.07,8.22,2.07,10.76s5.79,3.94,10.47,3.94a26.85,26.85,0,0,0,11.57-3l2.45-13.87Z"
         id="path14"
         style="fill:#ffffff" />
      <path
         d="M38.85,118.4a4.38,4.38,0,0,1,2.33-.73,4.17,4.17,0,0,1,2.89,1.43l4.72-5.62a6.34,6.34,0,0,0-5-2.45,6.46,6.46,0,0,0-4,1.56l-.14.14H38.55l-.13-1.67-6.36.37-3.24,20.65,7.77-.37,2.09-13.18Z"
         id="path16"
         style="fill:#ffffff" />
      <path
         d="M68.57,113.72a9.15,9.15,0,0,0-7.3-3.11c-7.05,0-12.17,4.07-13.35,10.63a9.66,9.66,0,0,0,1.92,8,9.44,9.44,0,0,0,7.39,3.26,13.09,13.09,0,0,0,13.35-10.63A10.1,10.1,0,0,0,68.57,113.72Zm-5.49,8.36c-.29,1.61-1.62,4.66-4.66,4.66a2.84,2.84,0,0,1-2.3-1c-1.09-1.29-.91-3.5-.7-4.7h0c.21-1.09,1.19-4.65,4.65-4.65a2.87,2.87,0,0,1,2.29,1C63.4,118.59,63.32,120.6,63.08,122.08Z"
         id="path18"
         style="fill:#ffffff" />
      <path
         d="M89.6,111.43l-2.14,13.24-.24.11a9.8,9.8,0,0,1-3.31.9,1.78,1.78,0,0,1-1.43-.65,4.45,4.45,0,0,1-.55-3.54l1.76-10.17c-1.34,0-4.85.07-7.48.13l-1.79,10.21c-.74,4.13-.44,6.92.92,8.55,1.07,1.28,2.89,1.9,5.55,1.9a12.34,12.34,0,0,0,5.35-1.63l.12-.07h1l.33,1.68,6.68-.38,3-20.65Z"
         id="path20"
         style="fill:#ffffff" />
      <path
         d="M123.12,121.48c.72-4.12.41-6.92-1-8.55-1.08-1.28-2.89-1.9-5.55-1.9a12.23,12.23,0,0,0-5.35,1.63l-.12.07h-1l-.34-1.68-6.63.38-3,20.65,7.78-.37,2.1-13.24.25-.11a10.05,10.05,0,0,1,3.34-.9,1.8,1.8,0,0,1,1.43.66,4.48,4.48,0,0,1,.55,3.54l-1.8,10.16c1.35,0,4.87-.07,7.51-.12Z"
         id="path22"
         style="fill:#ffffff" />
      <path
         d="M144.79,101.73l-2.08,10.57h-1l-.13-.09a6.85,6.85,0,0,0-3.74-1.18c-6.53,0-10.53,5.73-11.48,11a9.72,9.72,0,0,0,2,7.63,8.25,8.25,0,0,0,6.65,2.83,7.43,7.43,0,0,0,4.22-1.58l.14-.12h1.07l.12,1.67,6.63-.37,5-29.66Zm-4.06,23.07-.14.12a6.26,6.26,0,0,1-3.72,1.4,2.6,2.6,0,0,1-2.12-.9,4.77,4.77,0,0,1-.58-3.94c.35-2,1.79-4.23,4.1-4.23a4.85,4.85,0,0,1,3.18,1l.2.18Z"
         id="path24"
         style="fill:#ffffff" />
      <polygon
         points="169.86 102.96 164.4 131.69 184.84 131.69 186.27 125.45 173.86 125.02 174.67 120.44 185.26 120.44 186.03 114 175.81 114 176.58 109.61 188.08 109.61 189.81 102.96 169.86 102.96"
         id="polygon26"
         style="fill:#ffffff" />
      <polygon
         points="195.14 102.92 190.12 131.29 197.98 131.67 202.74 102.17 195.14 102.92"
         id="polygon28"
         style="fill:#ffffff" />
      <path
         d="M215.78,126.74a6.53,6.53,0,0,1-3.94-1.39l-.22-.19.25-1.23.51.13a14.61,14.61,0,0,0,3.18.41c4.32,0,9.72-2,10.72-7.66a4.51,4.51,0,0,0-.95-3.78c-1.33-1.59-3.8-2.42-7.13-2.42-7,0-13.11,4.56-14.2,10.63-.56,3.21,0,5.85,1.67,7.83,1.88,2.24,5.05,3.47,8.92,3.47a20.32,20.32,0,0,0,8.8-2.28l-1.74-4.64A17.33,17.33,0,0,1,215.78,126.74Zm-3.15-7.42c.92-2.54,2.4-3.77,4.55-3.77a1.94,1.94,0,0,1,1.58.64,1.7,1.7,0,0,1,.31,1.44c-.25,1.52-2.26,2.32-6,2.36h-.72Z"
         id="path30"
         style="fill:#ffffff" />
      <polygon
         points="246.13 110.28 239.48 122.92 238.3 122.92 237.2 111.07 228.77 111.83 232.59 131.69 241.66 131.69 253.16 112.51 246.13 110.28"
         id="polygon32"
         style="fill:#ffffff" />
      <path
         d="M264.41,126.74a6.5,6.5,0,0,1-3.94-1.39l-.22-.19.25-1.23.51.13a14.49,14.49,0,0,0,3.18.41c4.32,0,9.72-2,10.72-7.66a4.51,4.51,0,0,0-1-3.78c-1.33-1.59-3.8-2.42-7.13-2.42-7,0-13.11,4.56-14.2,10.63-.56,3.21,0,5.85,1.67,7.83,1.88,2.24,5.05,3.47,8.92,3.47a20.32,20.32,0,0,0,8.8-2.28l-1.74-4.64A17.33,17.33,0,0,1,264.41,126.74Zm-3.15-7.42c.92-2.54,2.4-3.77,4.55-3.77a1.94,1.94,0,0,1,1.58.64,1.7,1.7,0,0,1,.31,1.44c-.25,1.52-2.26,2.32-6,2.36H261Z"
         id="path34"
         style="fill:#ffffff" />
      <path
         d="M299.37,121.48c.72-4.12.41-6.92-.95-8.55-1.08-1.28-2.9-1.9-5.56-1.9a12.34,12.34,0,0,0-5.35,1.63l-.12.07h-1l-.33-1.68-6.64.38-3,20.65,7.78-.37,2.1-13.24.25-.11a10.06,10.06,0,0,1,3.35-.9,1.82,1.82,0,0,1,1.43.66,4.52,4.52,0,0,1,.55,3.54l-1.81,10.16c1.35,0,4.88-.07,7.52-.12Z"
         id="path36"
         style="fill:#ffffff" />
      <text
         class="cls-1"
         transform="translate(80.37 164.86)"
         id="text38"
         style="fill:#ffffff">Advertising</text>
    </g>
  </g>
</svg>
