<svg xmlns="http://www.w3.org/2000/svg" viewBox="0 0 170.89 76.12"><defs><style>.cls-1{fill:#328bd9;}</style></defs><title>G11 2 Blue</title><g id="Слой_2" data-name="Слой 2"><g id="Слой_1-2" data-name="Слой 1"><path class="cls-1" d="M53.22,24.69S49.11,19,40.37,19c-7.2,0-13,3.6-15.95,20.06-2.16,12.34,2,18.51,10.19,18.51a22.33,22.33,0,0,0,7.92-1.54l1.23-6.69-12.24-.51,4.73-18,31.48,2.06L61.45,68.4C52.92,73,41.6,76.12,32.34,76.12c-23.65,0-35.59-13.89-31.57-37C4.37,19,13.83,0,44.79,0,60.63,0,68.65,10.29,68.65,10.29Z"/><path class="cls-1" d="M71.22,56.57H84.59l6.69-31.88L76.67,28.8,72.86,15.43,99.71,0l18.21,2.06-10.7,55,10.29-.52-2,17.49H68.24Z"/><path class="cls-1" d="M124.19,56.57h13.37l6.69-31.88L129.64,28.8l-3.81-13.37L152.68,0l18.21,2.06-10.7,55,10.28-.52-1.95,17.49H121.21Z"/></g></g></svg>