<svg xmlns="http://www.w3.org/2000/svg" viewBox="0 0 509.53 332.3"><defs><style>.cls-1{fill:#2db23d;}.cls-1,.cls-2{fill-rule:evenodd;}.cls-2{fill:#2b722b;}.cls-3{fill:none;}</style></defs><title>3</title><g id="Layer_2" data-name="Layer 2"><g id="Layer_1-2" data-name="Layer 1"><path class="cls-1" d="M459.86,179v-1.47c-1.46-2-2.35-2.79-5.49-3.54a19,19,0,0,0-7.78-.2,15.45,15.45,0,0,0-10.1,7.2c-.29-2.73.89-6.34-1.7-6.95-1.87-.44-6,.18-7.67.8-.33,4.1,0,9.46,0,13.7V216.2c0,5.31-.19,4.51,9.35,4.51V205.56c0-7.89-2.2-19.93,6.49-23.37,4.93-2,8.65-.2,12.24,1.46a12.48,12.48,0,0,0,3.79-3.25l.91-1.46Z"/><path class="cls-1" d="M352.95,182.31c-4.84-.32-10.61,0-15.55,0-2,0-5.83.6-6.67-1-.75-1.39-.18-5.32.32-6.83,8-.07,16,0,23.91,0,4.68,0,7.29-1,9.08,3,.83,1.82,1.36,3.11.52,4.31-1.94,2.76-22,29.69-22.68,31.17h15.81c8.94,0,8.12-1.25,8.12,7.73l-30.64.06c-2.56,0-3.11-.57-4-2.23-2.49-4.54-1.08-4.77,1.28-8,3.47-4.74,6.91-9.35,10.34-14.15,1.73-2.42,3.39-4.57,5.12-7,.83-1.16,1.77-2.4,2.61-3.57a29.87,29.87,0,0,0,2.44-3.46Z"/><path class="cls-2" d="M219.67,153.86c1.55-.77,6.39-1.15,8.38-1.23,3.69-.14,5.86-.18,5.92,3.69.05,3.61-.22,16.76.07,19,4.08-3.07,8.45-5.81,15.75-5.28a19.14,19.14,0,0,1,8.12,2.45c1.75,1,4.76,3.42,5.44,4.88-1.16,1.1-10.16,6-12.06,6.68-1.41-1.21-2.46-2.32-5.18-2.74A14,14,0,0,0,234.71,185c-1.15,1.22-.77,4.58-.73,7.07l-14.39,5.33.08-43.57Z"/><path class="cls-2" d="M287.17,161.09c-1.59-.93-2.82-2.6-5.82-4.14-6.14-3.17-25.29-1.85-27.42-21.37-.32-3-.27-6.13-.79-9.1-.88-5.07-2.69-5.06-3-6.37,25.31-1.73,41.32,7.36,38.13,33.91a24.86,24.86,0,0,1-1.81-3c-.66-1-1.18-1.88-1.85-2.86-3-4.43-10.48-11.72-15.74-12.87a79.64,79.64,0,0,1,10.79,11.14c2.38,3.18,6.82,9.39,7.47,14.6Z"/><path class="cls-2" d="M167.11,212c-1.93-3.55-3.81-4.73-5-11.06-3.87-20.67,13.08-34.88,31.41-30.15a25.86,25.86,0,0,1,10.54,5.54l3.72,4.43c3.31,5.18,5.11,13.64,3.56,19.47-2.53.8-14.4,4.67-16.12,4.76a17.73,17.73,0,0,0,2.09-7.87c.42-9.23-4.47-18.33-14-15.48s-10.07,21.57-.88,26.67c-1.16.66-13.31,3.39-15.38,3.68Z"/><path class="cls-2" d="M148.88,206.46a10.45,10.45,0,0,1,1.83,4.2c.64,2.42-.08,3.23-1.47,4.17-1,.71-17.14,3.66-19.65,4.12-4.71.86-5.11,1.12-9.24-.94-11.68-5.84-15.9-20.22-11.47-32.41,4.6-12.65,18.48-17.94,30.43-14.75,8.84,2.36,16.49,10.61,15.15,13.55-1.57,3.45-9.6,5.25-12.39,5-4.41-12.94-21.58-10.72-20.27,7.07.94,12.68,8.4,14.6,18.79,12.7,3.63-.66,5.32-1.68,8.29-2.67Z"/><path class="cls-2" d="M90.46,174.92c-10.85-8.09-27.71-6.27-36.16,5.09a23.5,23.5,0,0,0-2.89,5.52,26.56,26.56,0,0,0-.95,3.26l-.79,3.82v5.45c.59,1.33.36,4,2.08,8.14A23.41,23.41,0,0,0,69,220.14a27.4,27.4,0,0,0,17.6-1.92c5.61-2.62,9.35-5.92,4.88-11.84-5,1.9-9.87,3.88-16.26,3.34-5.63-.48-9.6-4.15-10.27-9.58,6.74,0,27.89,1.07,31.88-2.13C101.48,194.26,99.63,181.75,90.46,174.92Zm-25.83,16c.74-5.41,4.36-9.89,10.29-9.64a10.51,10.51,0,0,1,9.91,9.53Z"/><path class="cls-1" d="M321.8,193.93c-1-13-11-22.91-25.26-21.4-13.15,1.4-21.37,12-20.25,26.6,1,13.09,11,22.94,25.43,21.43C314.69,219.21,322.94,208.49,321.8,193.93ZM301,212.66c-9,1-14.44-6.17-15.19-14.38-.84-9.27,2.87-16.93,11.45-17.84C315.5,178.5,318,210.81,301,212.66Z"/><path class="cls-1" d="M419.21,194.18c-1-13.09-10.7-23-25-21.68-13.18,1.21-21.56,11.76-20.55,26.3.92,13.22,10.65,23.14,25.1,21.81C411.9,219.39,420.27,208.69,419.21,194.18Zm-21,18.5c-8.84.83-14.25-6.28-15-14.31-.86-9.44,2.89-17.08,11.52-17.94s14.18,6.25,14.93,14.24C410.53,204.06,406.74,211.88,398.19,212.69Z"/><path class="cls-1" d="M354.86,111.58c-.21-2.94-1-11.56-2-13.67-5.17,6.88-22.5,7.6-32.72,10.73-19.3,5.91-25.48,20.11-26.4,38.59-.37,7.44-1.06,12.33-5.09,16.51a106,106,0,0,1-24.06,19c-36,21.55-87.15,31.69-134.92,38.12l2.7.56h6.49c.91-.39,20.56-1.72,23.73-2.07,2.45-.27,9.68-1.51,11.51-1.38s16.19,8.79,31.23-4.68c2.87-2.57-.12-1.19,6.57-3.07,3.19-.9,6.76-2.09,9.91-2.84,2.32,5.64,5.83,9.49,11.51,11.74a27,27,0,0,0,19.67-.45A23.73,23.73,0,0,0,264.65,207c3.38-7,3.19-11.76,2.58-20a35.14,35.14,0,0,1,4.58-3,191.43,191.43,0,0,0,23.29-17.53c.75-.64,1.16-1,2-1.75l3.9-3.52c2.62-2.3,3.32-3.45,5.57-5.57A173.66,173.66,0,0,0,322.26,138c1.11-1.4,2.15-2.77,3.24-4.18a33.62,33.62,0,0,1,3.27-4.18c-1.25,5-8,18-11,22.41A58.87,58.87,0,0,1,305.7,165.2c-1.49,1.19-3,2.2-4.59,3.4,5.69.16,20-3.79,25.5-6.23,8.11-3.58,12.94-7,18.44-13.22C353.49,139.55,355.81,124.94,354.86,111.58ZM248.12,211.3c-5,2.67-13.72,2.45-14.38-8.22,4.79-1.54,21.11-9.25,21.71-9.41C256,201.7,253.12,208.64,248.12,211.3Z"/><rect class="cls-3" width="509.53" height="332.3"/></g></g></svg>