<svg xmlns="http://www.w3.org/2000/svg" viewBox="0 0 509.53 332.3"><defs><style>.cls-1{fill:#425daa;}.cls-2{fill:#fff;}.cls-3{fill:none;}</style></defs><title>4</title><g id="Layer_2" data-name="Layer 2"><g id="Layer_1-2" data-name="Layer 1"><circle class="cls-1" cx="254.76" cy="166.15" r="115.84"/><path class="cls-2" d="M212.1,198.8s8-3.74,18-14.6c0,0,6.49-4.74,8.42-5.15s4.42,1.13,11.66-1.77,10.61-2.65,14.64-5,10.69-4.26,16-6.84,10.33-7.84,10.33-7.84a17.61,17.61,0,0,0,4.66-1l1.65-.76,7.88-.56s-7-1.13-8.28-1.89a5.23,5.23,0,0,0-6-.2c-3,1.61-4.14,4.5-5.71,6.15a14.68,14.68,0,0,1-6.84,3.42c-2.41.56-7.4-.72-7.76-1.29a3.2,3.2,0,0,1,.56-3.58c1.21-1.13,6.11-3.78,17.17-8.6s12.95-6.59,21.71-14.84,11.38-14.35,12.38-22.68-.56-9.53-.56-9.53-1,2.81-7.44,8.12-8.81,9.47-11.64,15-3.5,9.59-12.91,14.81-9.71,4.33-18,11-7.08,8.08-13.59,9.65-8.32-1-18.66-4-16.28-6.11-20.51-10.41-9.33-9.77-9.33-9.77-1.41,1.37,1,5.31a61.58,61.58,0,0,0,3.7,5.63,44.39,44.39,0,0,1-10.53-7.4,67.27,67.27,0,0,0-5.59-5.19s-.52,1.73,2,5.27,7.88,8.28,7.88,8.28-12.54-7.52-16.65-12.95c0,0,1,7.84,13.55,14.11,0,0-4.34,1.37-22.44-9.41,0,0-1.77,1.89,9.09,10.23a51.64,51.64,0,0,1-15-4.76s0,3.3,11.26,7.56c0,0-12.83-.36-16.38,1.09a153.5,153.5,0,0,1,15.74,1.15s-9.89.78-14.6,2.77c0,0,22.56-1,29.79,1s7.54,3.2,12.06,7.72,15.2,4.52,16.46,6.33,1.45,3.86-2.17,5.49-10.64,4.34-10.64,4.34a4.91,4.91,0,0,1,1.45,1.66,17.13,17.13,0,0,0,.75,1.63s3.47-2.56,6.27-3,2.74.06,2.74.06l-10.74,10S214.48,192.44,212.1,198.8Z"/><path class="cls-2" d="M257.38,190.14h-4.91v2.58H257v2.69h-4.55v5.93h-2.74V187.45h7.64Z"/><path class="cls-2" d="M267.36,196.11a6.48,6.48,0,0,1-1.16,4.07,4.29,4.29,0,0,1-6.5,0,7.75,7.75,0,0,1,0-8.16,4.29,4.29,0,0,1,6.5,0A6.53,6.53,0,0,1,267.36,196.11Zm-3.17,2.55a3.06,3.06,0,0,0,.38-1,7.56,7.56,0,0,0,.13-1.56,7.83,7.83,0,0,0-.13-1.55,3.14,3.14,0,0,0-.36-1,1.35,1.35,0,0,0-.55-.54,1.55,1.55,0,0,0-.69-.16,1.6,1.6,0,0,0-.66.13,1.41,1.41,0,0,0-.56.52,3.05,3.05,0,0,0-.38,1,7.6,7.6,0,0,0-.14,1.6,7.93,7.93,0,0,0,.12,1.49,3,3,0,0,0,.36,1,1.46,1.46,0,0,0,.55.53,1.6,1.6,0,0,0,1.4,0A1.31,1.31,0,0,0,264.19,198.66Z"/><path class="cls-2" d="M275,194.07h-.23a1.83,1.83,0,0,0-.53-.11l-.61,0a4,4,0,0,0-1.88.41v7h-2.59V190.87h2.59v1.54a5.47,5.47,0,0,1,1.48-1.26,2.63,2.63,0,0,1,1.16-.31h.31l.3,0Z"/><path class="cls-2" d="M284.43,196.73h-5.9a2.72,2.72,0,0,0,.72,1.88,2.67,2.67,0,0,0,2,.65,3.5,3.5,0,0,0,1.58-.38,4.71,4.71,0,0,0,1.21-.82h.29v2.7a8,8,0,0,1-1.65.66,6.68,6.68,0,0,1-1.71.21,4.76,4.76,0,0,1-3.71-1.42,5.8,5.8,0,0,1-1.29-4,6.37,6.37,0,0,1,1.22-4.11,4.07,4.07,0,0,1,3.35-1.52,3.48,3.48,0,0,1,3,1.29,6,6,0,0,1,1,3.72Zm-2.56-2a2.83,2.83,0,0,0-.4-1.59,1.35,1.35,0,0,0-1.18-.53,1.62,1.62,0,0,0-1.23.5,2.48,2.48,0,0,0-.54,1.61Z"/><path class="cls-2" d="M294.35,190.87l-3.1,10.48h-2.92l-3.08-10.48H288l1.87,7.21,1.84-7.21Z"/><path class="cls-2" d="M303.71,196.73h-5.9a2.72,2.72,0,0,0,.72,1.88,2.67,2.67,0,0,0,2,.65,3.5,3.5,0,0,0,1.58-.38,4.71,4.71,0,0,0,1.21-.82h.29v2.7a8,8,0,0,1-1.65.66,6.68,6.68,0,0,1-1.71.21,4.76,4.76,0,0,1-3.71-1.42,5.8,5.8,0,0,1-1.29-4,6.37,6.37,0,0,1,1.22-4.11,4.07,4.07,0,0,1,3.35-1.52,3.48,3.48,0,0,1,3,1.29,6,6,0,0,1,1,3.72Zm-2.56-2a2.83,2.83,0,0,0-.4-1.59,1.35,1.35,0,0,0-1.18-.53,1.62,1.62,0,0,0-1.23.5,2.48,2.48,0,0,0-.54,1.61Z"/><path class="cls-2" d="M311.36,194.07h-.23a1.83,1.83,0,0,0-.53-.11l-.61,0a4,4,0,0,0-1.88.41v7h-2.59V190.87h2.59v1.54a5.47,5.47,0,0,1,1.48-1.26,2.63,2.63,0,0,1,1.16-.31h.31l.3,0Z"/><path class="cls-2" d="M216.65,206.57h-2.84V204h2.84Zm-.07,12h-2.69V208.06h2.69Z"/><path class="cls-2" d="M227.52,218.54h-2.69v-5.2q0-.63-.05-1.26a3.23,3.23,0,0,0-.18-.93,1,1,0,0,0-.44-.5,1.68,1.68,0,0,0-.8-.16,2,2,0,0,0-.74.15,3.68,3.68,0,0,0-.82.48v7.43H219.1V208.06h2.69v1.16a6.8,6.8,0,0,1,1.37-1.07,2.92,2.92,0,0,1,1.46-.37,2.53,2.53,0,0,1,2.12,1,4.79,4.79,0,0,1,.76,3Z"/><path class="cls-2" d="M245.18,217.74a12.83,12.83,0,0,1-2,.72,8.72,8.72,0,0,1-2.45.36,5.46,5.46,0,0,1-4.44-1.93,9.43,9.43,0,0,1,0-10.54,5.5,5.5,0,0,1,4.51-2,8.6,8.6,0,0,1,2.09.25,8.19,8.19,0,0,1,2.21,1v3.26h-.32l-.61-.56a7.44,7.44,0,0,0-.78-.61,4.57,4.57,0,0,0-1-.51,3.5,3.5,0,0,0-1.23-.21,3.31,3.31,0,0,0-1.38.28,3.18,3.18,0,0,0-1.11.86,4.11,4.11,0,0,0-.74,1.42,6.62,6.62,0,0,0-.27,2,5.53,5.53,0,0,0,1,3.53,3.47,3.47,0,0,0,2.89,1.22h.36l.36,0v-2.72h-2.21v-2.62h5.12Z"/><path class="cls-2" d="M255.84,213.92H249.7a2.66,2.66,0,0,0,.75,1.88,2.85,2.85,0,0,0,2,.65,3.77,3.77,0,0,0,1.65-.38,4.92,4.92,0,0,0,1.26-.82h.3v2.7a8.56,8.56,0,0,1-1.72.66,7.23,7.23,0,0,1-1.78.21,5.07,5.07,0,0,1-3.86-1.42,5.65,5.65,0,0,1-1.34-4,6.2,6.2,0,0,1,1.27-4.11,4.31,4.31,0,0,1,3.49-1.52,3.69,3.69,0,0,1,3.07,1.29,5.85,5.85,0,0,1,1,3.72Zm-2.67-2a2.75,2.75,0,0,0-.42-1.59,1.43,1.43,0,0,0-1.23-.53,1.72,1.72,0,0,0-1.28.5,2.42,2.42,0,0,0-.56,1.61Z"/><path class="cls-2" d="M263.81,211.26h-.24a2,2,0,0,0-.55-.11l-.63,0a4.91,4.91,0,0,0-1,.09,4.84,4.84,0,0,0-.94.32v7h-2.69V208.06h2.69v1.54a5.64,5.64,0,0,1,1.54-1.26,2.83,2.83,0,0,1,1.21-.31h.32l.31,0Z"/><path class="cls-2" d="M273.51,211.11v7.43h-2.69V213.3q0-.76,0-1.3a2.81,2.81,0,0,0-.16-.87.94.94,0,0,0-.41-.49,1.57,1.57,0,0,0-.76-.15,1.6,1.6,0,0,0-.77.2,5.32,5.32,0,0,0-.67.42v7.43h-2.69V208.06H268v1.16a7.36,7.36,0,0,1,1.33-1.06,2.65,2.65,0,0,1,1.4-.38,2.41,2.41,0,0,1,1.46.46,3,3,0,0,1,1,1.36,8.52,8.52,0,0,1,1.56-1.33,2.76,2.76,0,0,1,1.49-.49,2.35,2.35,0,0,1,2.06,1,5.12,5.12,0,0,1,.7,2.93v6.82h-2.69V213.3q0-.77,0-1.31a2.73,2.73,0,0,0-.16-.87.9.9,0,0,0-.4-.49,1.61,1.61,0,0,0-.78-.15,1.58,1.58,0,0,0-.66.14A4.72,4.72,0,0,0,273.51,211.11Z"/><path class="cls-2" d="M286.56,217.43l-.54.49a3.86,3.86,0,0,1-.6.46,3.31,3.31,0,0,1-.82.33,3.82,3.82,0,0,1-.93.11,2.55,2.55,0,0,1-2-.92,3.46,3.46,0,0,1-.81-2.36,3.79,3.79,0,0,1,.41-1.88,3,3,0,0,1,1.16-1.15,5.56,5.56,0,0,1,1.85-.6q1.1-.18,2.29-.26v-.06a1.27,1.27,0,0,0-.57-1.2,3.37,3.37,0,0,0-1.67-.33,3.91,3.91,0,0,0-1.42.29q-.75.29-1.08.45h-.25v-2.53A13.12,13.12,0,0,1,283,208a9.81,9.81,0,0,1,1.92-.19,5,5,0,0,1,3.31.88,3.47,3.47,0,0,1,1,2.77v7.13h-2.66Zm0-1.63v-2.18q-.54.06-1.18.15a4.69,4.69,0,0,0-1,.23,1.32,1.32,0,0,0-.62.46,1.35,1.35,0,0,0-.21.79,2.57,2.57,0,0,0,0,.53.82.82,0,0,0,.22.39,1,1,0,0,0,.41.27,2.32,2.32,0,0,0,.75.09,1.83,1.83,0,0,0,.82-.2A2.51,2.51,0,0,0,286.56,215.8Z"/><path class="cls-2" d="M300.11,218.54h-2.69v-5.2q0-.63-.05-1.26a3.22,3.22,0,0,0-.18-.93,1,1,0,0,0-.44-.5,1.68,1.68,0,0,0-.8-.16,2,2,0,0,0-.74.15,3.67,3.67,0,0,0-.82.48v7.43h-2.69V208.06h2.69v1.16a6.8,6.8,0,0,1,1.37-1.07,2.92,2.92,0,0,1,1.46-.37,2.53,2.53,0,0,1,2.12,1,4.8,4.8,0,0,1,.76,3Z"/><path class="cls-2" d="M306.35,214.83l1.91-6.77H311l-4.65,14.32h-2.91l1.33-3.92-3.26-10.4h2.82Z"/><rect class="cls-3" width="509.53" height="332.3"/></g></g></svg>