<svg xmlns="http://www.w3.org/2000/svg" viewBox="0 0 509.53 332.3"><defs><style>.cls-1,.cls-2{fill:#020202;}.cls-2{fill-rule:evenodd;}.cls-3{fill:none;}</style></defs><title>2</title><g id="Layer_2" data-name="Layer 2"><g id="Layer_1-2" data-name="Layer 1"><path class="cls-1" d="M147,184.58h35.78v8.56H168.56v27.47h-9V193.14H145.3v-8.56H147m41.61,0h33v8.56H195.93v4.95H220.7v8.56H195.94V212h25.64v8.56H186.91v-36Zm39.49,0h7.31V212h24.35v8.55H226.4v-36Zm37.37,0h33v8.56H272.79v4.95h24.77v8.56H272.79V212h25.64v8.56H263.77v-36ZM312,202.18q0,7.74,1.14,8.76h0a1,1,0,0,0,.23.14,4.66,4.66,0,0,0,.67.24,37.92,37.92,0,0,0,9,.73q4.34,0,6.84-.18a11.68,11.68,0,0,0,2.75-.38,1.18,1.18,0,0,0,.21-.16h0a1.61,1.61,0,0,0,.26-.3q.87-1.26.87-4.55v-1.68h9v1.69h0a24.44,24.44,0,0,1-.91,7.24c-.1.34-.22.65-.33.93a7.4,7.4,0,0,1-2.84,3.6h0a8.42,8.42,0,0,1-1.36.68,14.51,14.51,0,0,1-1.61.53,70.8,70.8,0,0,1-23,.37,13,13,0,0,1-6.22-2.58,10.91,10.91,0,0,1-3-5.78,51.43,51.43,0,0,1,0-18.64,11,11,0,0,1,2.92-5.81,12.9,12.9,0,0,1,6.23-2.61,55,55,0,0,1,10.1-.76h0a74.75,74.75,0,0,1,9.81.53l1.23.19a13.65,13.65,0,0,1,4.82,1.6l0,0h0a6.64,6.64,0,0,1,1.88,1.87,10.2,10.2,0,0,1,1.24,2.63,24.55,24.55,0,0,1,.9,7.27v1.68h-9v-1.68q0-4.25-1-4.75h0a10.24,10.24,0,0,0-3-.55c-1.68-.15-4-.22-6.92-.22q-8.74,0-9.94,1.08h0a4.93,4.93,0,0,0-.73,2.31A42.15,42.15,0,0,0,312,202.18ZM369.2,212a74.69,74.69,0,0,0,8.34-.36,8,8,0,0,0,3.16-.75,4.53,4.53,0,0,0,.78-2.27,39,39,0,0,0,.42-6.49,39.92,39.92,0,0,0-.42-6.53,4.63,4.63,0,0,0-.76-2.28h0a8.21,8.21,0,0,0-3.16-.74,76.07,76.07,0,0,0-8.36-.36h0a75.7,75.7,0,0,0-8.36.36,8,8,0,0,0-3.15.74h0a.64.64,0,0,0-.11.15h0a2.83,2.83,0,0,0-.25.54q-.81,2.23-.81,8.11a38.93,38.93,0,0,0,.42,6.47,4.59,4.59,0,0,0,.78,2.28h0a1.06,1.06,0,0,0,.26.14,5.33,5.33,0,0,0,.79.24A49.79,49.79,0,0,0,369.2,212Zm0,8.56h0q-5.05,0-8.62-.34-1.27-.12-2.25-.26a22.91,22.91,0,0,1-3.65-.8h0a13.31,13.31,0,0,1-1.27-.49,9.56,9.56,0,0,1-1.15-.62A8.78,8.78,0,0,1,348.3,213v0c-.09-.29-.17-.62-.24-1s-.12-.67-.18-1.11a69.22,69.22,0,0,1-.41-8.67q0-4,.18-6.65a20.78,20.78,0,0,1,.6-4.13h0a10,10,0,0,1,.45-1.23,8.51,8.51,0,0,1,.61-1.13,9.46,9.46,0,0,1,5.31-3.93,28.34,28.34,0,0,1,5.95-1.09q3.64-.35,8.61-.35h0q5.06,0,8.63.34a27.8,27.8,0,0,1,5.9,1.07h0a11.58,11.58,0,0,1,1.26.5,10.17,10.17,0,0,1,1.16.62,9,9,0,0,1,3.92,5.16h0a20.9,20.9,0,0,1,.65,4.22q.2,2.67.2,6.6t-.18,6.6a20.27,20.27,0,0,1-.61,4.13,9.07,9.07,0,0,1-2.31,3.93h0a10,10,0,0,1-4,2.36h0c-.44.14-.91.27-1.4.38s-1,.22-1.6.31A74.9,74.9,0,0,1,369.2,220.61Zm39-35.23L423,209.16l14.73-23.78.5-.8H450v36h-9V196.83l-14.89,23-.5.77h-5.29l-.5-.77L405,196.91v23.7h-9v-36h11.77Z"/><path class="cls-1" d="M104.21,191.47v-6.88h37V192l-.6.51L117.28,212h23.88v8.56h-38v-7.42l.61-.51,23.56-19.55h-23.1v-1.68m-35.63,17.3a5.26,5.26,0,0,0,.32,2.07,1,1,0,0,0,.52.57,12.52,12.52,0,0,0,3.09.46q2.58.19,7,.18h.08q4.3,0,7-.2l.79-.06a9.45,9.45,0,0,0,2.28-.39h0a1,1,0,0,0,.49-.57,5.33,5.33,0,0,0,.32-2.08V184.12h9v24.67h0a20.17,20.17,0,0,1-.73,5.94c-.09.3-.19.55-.27.76A5.59,5.59,0,0,1,96,218.36a16.12,16.12,0,0,1-6.21,1.73,85.16,85.16,0,0,1-10.37.51h-.05a98.34,98.34,0,0,1-10.19-.42q-1.31-.14-2.4-.35a11.31,11.31,0,0,1-3.52-1.12,6.78,6.78,0,0,1-2.94-3.88,19.07,19.07,0,0,1-.82-6.07V184.12h9Z"/><path class="cls-2" d="M226.23,131.84a19.78,19.78,0,1,0,0-39.56,19.34,19.34,0,0,0-2.43.15,19.78,19.78,0,0,1,0,39.25,19.34,19.34,0,0,0,2.43.15m-4.39-7.25a12.53,12.53,0,1,0,0-25.06,12.17,12.17,0,0,0-1.54.1,12.53,12.53,0,0,1,0,24.86A13,13,0,0,0,221.84,124.59Zm-3-4.34a8.52,8.52,0,0,0,0-16.37,10.25,10.25,0,0,1,0,16.37Z"/><path class="cls-2" d="M241.48,144.57a32.51,32.51,0,0,0,0-65,32.85,32.85,0,0,0-4,.25,32.5,32.5,0,0,1,0,64.52,32.85,32.85,0,0,0,4,.24m-8.91-5.91a26.59,26.59,0,1,0-3.26-53,26.59,26.59,0,0,1,0,52.78A26.64,26.64,0,0,0,232.58,138.65Zm21.76,9.78A36.37,36.37,0,1,0,249.87,76a36.37,36.37,0,0,1,0,72.2A36.42,36.42,0,0,0,254.33,148.44Z"/><rect class="cls-3" width="509.53" height="332.3"/></g></g></svg>