<svg xmlns="http://www.w3.org/2000/svg" viewBox="0 0 509.53 332.3"><defs><style>.cls-1{fill:#343a40;}.cls-2{fill:none;}</style></defs><title>1</title><g id="Layer_2" data-name="Layer 2"><g id="Layer_1-2" data-name="Layer 1"><path class="cls-1" d="M346.68,163c2.83-3.75,6.08-6.11,10.32-6.9a19.85,19.85,0,0,1,9,.35,11.08,11.08,0,0,1,7.07,5.59c.58,1.09.87.87,1.53.13,2.65-3,5.7-5.43,9.78-6,6.36-1,12.31-.24,16.71,5.16a16,16,0,0,1,3.36,10.27c.08,10.11,0,20.22.06,30.33,0,.93-.29,1.11-1.15,1.1-4.26,0-8.51-.07-12.77,0-1.14,0-1.34-.34-1.33-1.39,0-8.17,0-16.35,0-24.52a34.59,34.59,0,0,0-.19-3.47c-.35-3.42-2.22-5.41-5.29-5.72-3.53-.35-6.4,1.37-7.43,4.48a12.66,12.66,0,0,0-.59,4c0,8.37,0,16.74,0,25.1,0,1.14-.17,1.56-1.45,1.53-4.11-.1-8.22-.09-12.33,0-1.2,0-1.4-.37-1.39-1.46,0-8.51,0-17,0-25.54a16.46,16.46,0,0,0-.2-3.18c-.58-2.95-1.87-4.53-4.13-5-3.32-.62-6.13.42-7.63,2.86a9.43,9.43,0,0,0-1.4,5c0,8.56-.07,17.12,0,25.68,0,1.37-.38,1.67-1.68,1.64-4.11-.09-8.22-.07-12.33,0-1,0-1.17-.29-1.17-1.21q0-21.77,0-43.53c0-.89.14-1.26,1.15-1.24q6.09.09,12.19,0c1,0,1.26.27,1.21,1.22C346.62,159.64,346.68,161.08,346.68,163Z"/><path class="cls-1" d="M143.56,163c3.14-3.78,6.72-6.2,11.25-6.91,5.27-.83,10.35-.32,14.73,3.07A13.89,13.89,0,0,1,174.88,170c.43,10.68.1,21.37.19,32.05,0,.82-.32.92-1,.92-4.35,0-8.7-.06-13.05,0-1.06,0-1.24-.32-1.24-1.29,0-8.17,0-16.34,0-24.51a18.14,18.14,0,0,0-.55-4.88,5.38,5.38,0,0,0-4.56-4.11c-6.09-1.09-10.43,2.43-10.48,8.63-.06,8.22,0,16.44,0,24.66,0,1.18-.23,1.54-1.48,1.51-4.16-.09-8.32-.06-12.47,0-.9,0-1.22-.16-1.22-1.15q.05-21.83,0-43.66c0-.84.13-1.17,1.08-1.16,4.11.06,8.22,0,12.33,0,.88,0,1.18.21,1.13,1.13C143.5,159.6,143.56,161.1,143.56,163Z"/><path class="cls-1" d="M294.74,163c5.28-6.27,11.68-8.23,19.14-6.78s12,6.66,12.22,14.37.09,15.67.1,23.51c0,2.61,0,5.22,0,7.84,0,.8-.17,1.08-1,1.07-4.4,0-8.8-.07-13.2,0-1.2,0-1.06-.63-1.06-1.36q0-12.19,0-24.38a19.09,19.09,0,0,0-.44-4.6A5.55,5.55,0,0,0,305,168.1c-4.59-.29-7.61,1.31-9,4.81a12,12,0,0,0-.73,4.4c0,8.08,0,16.16,0,24.23,0,1.16-.3,1.44-1.43,1.42-4.21-.07-8.42-.06-12.62,0-.91,0-1.12-.25-1.12-1.13q0-21.84,0-43.68c0-.82.11-1.18,1.08-1.17,4.11.06,8.22.05,12.33,0,.9,0,1.17.26,1.13,1.15C294.69,159.6,294.74,161.08,294.74,163Z"/><path class="cls-1" d="M244.68,183.55c10.4.06,20.79,0,31.18.05,1,0,1.33-.22,1.29-1.26a51.34,51.34,0,0,0-.35-5.35c-.87-6.1-3.09-11.54-7.85-15.69-7.35-6.41-20.63-7.41-29.37-2.06-8.43,5.15-11.7,13.06-11.33,22.62.33,8.41,3.91,15.13,11.46,19.18,7.94,4.25,16.3,4.46,24.63,1.25,6.08-2.35,9.94-6.93,11.89-13.31-4.4,0-8.69,0-13,0a1.75,1.75,0,0,0-1.74.91c-2.58,4-6.49,5.31-11.4,4-3.91-1-6.51-4.3-7.05-8.62C242.89,183.82,243.27,183.54,244.68,183.55Zm-1.32-9.77c1.59-7.24,7.7-8.9,13.06-7.2,3.63,1.15,5.18,4.08,5.8,7.63.16.9-.45.78-1,.78h-8.55c-2.8,0-5.61,0-8.41,0C243.25,175,243.15,174.75,243.37,173.78Z"/><path class="cls-1" d="M222.16,166.22c-4-6-9.85-8.79-16.8-9.07-7.78-.31-15.57-.09-23.36-.19-1.18,0-1.06.6-1.06,1.34q0,10.81,0,21.62v20.75c0,2.25,0,2.28,2.29,2.24,7.64-.13,15.29.41,22.91-.3a20.85,20.85,0,0,0,14.36-7C227.05,188.14,227.81,174.7,222.16,166.22ZM211.87,185c-1.16,3.83-3.78,5.9-7.63,6.61a32.28,32.28,0,0,1-5.5.26c-1.21,0-2.42-.06-3.62,0-.86.05-1-.27-1-1.07,0-7.3,0-14.61,0-21.91,0-.46-.13-1,.65-1,3,.06,6.11-.28,9.11.35,5,1.06,8,4.55,8.49,9.86A18,18,0,0,1,211.87,185Z"/><path class="cls-1" d="M107.09,180c0-7.2,0-14.41,0-21.61,0-1.14.29-1.46,1.44-1.44,4.21.07,8.41.05,12.62,0,.88,0,1.16.2,1.16,1.12q0,21.9,0,43.81c0,.8-.2,1-1,1-4.3,0-8.61-.05-12.91,0-1.06,0-1.26-.34-1.26-1.32C107.11,194.44,107.09,187.23,107.09,180Z"/><path class="cls-1" d="M114.62,147.24a9.71,9.71,0,0,1,.13-19.42,9.71,9.71,0,1,1-.13,19.42Z"/><path class="cls-1" d="M349.12,137.67a9.62,9.62,0,0,1-9.89,9.57,9.71,9.71,0,1,1,9.89-9.57Z"/><rect class="cls-2" width="509.53" height="332.3"/></g></g></svg>